PathFileType	4	(X/Y/Z)	C:/Users/opensim2020/Desktop/walking_exp_matlab/subject03_walking11_straight_03.trc	
DataRate	CameraRate	NumFrames	NumMarkers	Units	OrigDataRate	OrigDataStartFrame	OrigNumFrames	
100.00	100.00	5	46	mm	100.00	2882	380	
Frame#	Time	LFHD			RFHD			LBHD			RBHD			C7			T10			CLAV			STRN			RBAK			LSHO			LUPA			LELB			LFRM			LWRA			LWRB			LFIN			RSHO			RUPA			RELB			RFRM			RWRA			RWRB			RFIN			LASI			RASI			LPSI			RPSI			LTHI			LKNE			LTIB			LANK			LHEE			LTOE			RTHI			RKNE			RTIB			RANK			RHEE			RTOE			*39			*40			*41			*42			*43			*44			*45			
		X1	Y1	Z1	X2	Y2	Z2	X3	Y3	Z3	X4	Y4	Z4	X5	Y5	Z5	X6	Y6	Z6	X7	Y7	Z7	X8	Y8	Z8	X9	Y9	Z9	X10	Y10	Z10	X11	Y11	Z11	X12	Y12	Z12	X13	Y13	Z13	X14	Y14	Z14	X15	Y15	Z15	X16	Y16	Z16	X17	Y17	Z17	X18	Y18	Z18	X19	Y19	Z19	X20	Y20	Z20	X21	Y21	Z21	X22	Y22	Z22	X23	Y23	Z23	X24	Y24	Z24	X25	Y25	Z25	X26	Y26	Z26	X27	Y27	Z27	X28	Y28	Z28	X29	Y29	Z29	X30	Y30	Z30	X31	Y31	Z31	X32	Y32	Z32	X33	Y33	Z33	X34	Y34	Z34	X35	Y35	Z35	X36	Y36	Z36	X37	Y37	Z37	X38	Y38	Z38	X39	Y39	Z39	X40	Y40	Z40	X41	Y41	Z41	X42	Y42	Z42	X43	Y43	Z43	X44	Y44	Z44	X45	Y45	Z45	X46	Y46	Z46	

143	1.420	1349.31140	-137.30960	1626.35742	1482.46448	-142.82613	1633.84375	1351.41943	-261.95596	1573.63293	1482.41040	-262.58624	1581.34143	1407.17932	-287.67908	1422.88452	1408.02930	-323.38449	1109.52246	1415.29541	-167.94437	1343.79773	1411.97937	-126.07815	1178.94019	1500.90161	-347.85358	1248.71045	1258.64111	-202.53780	1380.72534	1180.76086	-176.50099	1192.12146	1165.35840	-139.19389	1075.77856	1169.49353	-74.82095	962.97113	1203.01514	-22.85802	857.11615	1150.12329	-39.73624	856.03857	1161.15088	3.20640	784.16962	1572.14856	-220.75275	1369.61963	1646.88159	-220.66360	1147.89502	1661.42688	-201.61327	1037.03735	1663.36011	-176.27615	902.28430	1628.32751	-138.58084	809.90454	1671.02454	-171.17863	802.25824	1662.94214	-140.88329	734.66370	1296.09167	-152.54330	945.42938	1535.20129	-160.57368	947.01056	1344.17395	-316.41046	970.69647	1492.73779	-320.03949	973.73169	1266.00659	-215.35756	643.25281	1309.88025	-217.63228	466.53830	1310.41040	-276.87903	279.37799	1356.33301	-304.01910	71.36092	1392.69592	-346.00150	37.82822	1377.67969	-152.70738	34.75937	1587.37109	-148.09009	657.05951	1562.66101	-78.17519	490.96100	1565.99341	-155.57587	314.97375	1523.92126	-231.14511	111.90318	1469.88293	-280.11142	88.51411	1513.22229	-107.13943	45.82605	1396.69324	-228.25690	1680.70667																		 
144	1.430	1349.62329	-130.54773	1625.81775	1482.78101	-136.28331	1633.28833	1351.69116	-255.17348	1572.62952	1482.67139	-255.87943	1580.34924	1407.11707	-280.77420	1422.45911	1407.85974	-316.78851	1109.02771	1415.51868	-161.29141	1343.05518	1412.06189	-119.50747	1178.17334	1500.34717	-341.16284	1248.06018	1258.82214	-195.26746	1380.14111	1180.60840	-168.86273	1191.96619	1164.96899	-130.76091	1075.91882	1169.24292	-64.74704	964.12402	1203.05078	-10.66943	859.53644	1150.40662	-28.12842	857.59100	1161.58691	16.32108	786.77649	1572.31128	-214.52904	1368.76086	1646.83606	-215.47754	1146.96521	1661.45544	-197.03232	1036.17090	1663.13281	-172.14035	901.10449	1628.04517	-134.75786	808.59711	1670.87634	-167.38019	801.14844	1662.57092	-137.50099	733.31091	1296.05530	-146.03870	944.79614	1535.11475	-154.00594	946.57794	1344.07813	-309.85431	969.83337	1492.63098	-313.63434	972.98773	1266.13916	-210.02135	642.81079	1309.99792	-214.30878	466.09222	1310.50940	-275.06543	279.31018	1356.42603	-303.86475	71.49887	1392.77417	-346.02039	37.94151	1377.79431	-152.66679	34.70185	1587.77856	-141.06404	657.02350	1562.44189	-69.29073	491.37851	1565.79333	-139.92432	312.61395	1523.29333	-206.64233	106.53371	1468.90881	-254.35677	80.93324	1513.38867	-79.91198	45.85402	1396.56531	-222.21165	1679.59766																		 
145	1.440	1349.95129	-123.97129	1625.05078	1483.11169	-129.71692	1632.65515	1351.94873	-248.30707	1571.51294	1482.94678	-249.18181	1579.28015	1407.16394	-273.86945	1421.95667	1407.85803	-310.14706	1108.44202	1415.86169	-154.53468	1342.29846	1412.24109	-112.92552	1177.38989	1500.04053	-334.83987	1247.53186	1259.04224	-187.99887	1379.61414	1180.49634	-161.30759	1191.60449	1164.56848	-122.51978	1076.11304	1169.20093	-54.85343	965.19672	1203.31311	1.10640	861.81982	1150.82800	-16.79120	859.02191	1162.18762	29.10454	789.27484	1572.49988	-208.17471	1367.84473	1646.91821	-210.04916	1145.95898	1661.24792	-192.08388	1034.86218	1662.91882	-167.96443	899.84998	1627.88916	-130.95119	807.20099	1670.55469	-163.67999	799.88171	1662.19714	-134.11060	731.67566	1296.11340	-139.09625	944.28607	1535.16211	-147.36792	946.00812	1343.96777	-303.20474	968.98230	1492.55640	-307.09161	972.12140	1266.52466	-204.63887	642.27869	1310.10193	-211.02092	465.65430	1310.55017	-273.19513	279.24530	1356.51331	-303.62427	71.53839	1392.73694	-346.06567	38.06371	1377.77734	-152.58900	34.72935	1588.06519	-134.05112	656.54944	1562.28259	-60.75765	491.53323	1565.62390	-124.48006	310.32553	1522.79102	-182.19563	101.53941	1468.26160	-228.62289	74.06733	1513.44629	-52.96284	46.22745																					 
146	1.450	1350.41394	-117.18456	1624.44214	1483.56799	-123.18581	1631.99036	1352.31738	-241.41380	1570.36218	1483.29175	-242.41298	1578.15942	1407.17578	-266.81104	1421.33984	1407.98840	-303.58060	1107.85889	1416.13647	-147.78539	1341.44885	1412.41541	-106.37180	1176.58765	1499.83667	-328.36816	1246.89465	1259.34290	-180.72731	1378.97815	1180.48230	-153.65851	1191.31824	1164.31482	-114.12480	1075.99768	1169.27478	-45.17336	966.10815	1203.75598	12.46638	863.91425	1151.49646	-5.72832	860.32715	1163.00940	41.55219	791.66095	1572.70007	-201.73975	1366.87134	1646.76392	-204.90848	1144.85339	1661.00891	-187.45793	1033.63733	1662.68982	-163.77927	898.53839	1627.60840	-127.08202	805.76392	1670.28406	-159.91287	798.57056	1661.93250	-130.67722	730.39764	1296.24255	-132.31862	943.64490	1535.23999	-140.72679	945.36163	1343.99146	-296.60132	968.23962	1492.52759	-300.41422	971.14124	1266.81995	-199.26445	641.75580	1310.18469	-207.46825	465.19971	1310.63037	-271.13562	279.12756	1356.47876	-303.46344	71.73255	1392.75781	-346.04178	38.19175	1377.56738	-152.41367	34.70248	1588.37378	-127.30031	655.92889	1562.05457	-52.46589	491.44913	1565.63440	-109.21926	308.18265	1522.62402	-157.77103	97.08726	1468.18030	-203.17070	67.86597	1513.45264	-26.45414	46.82926	1396.88318	-209.73528	1677.38049																		 
147	1.460	1350.82190	-110.46517	1623.71130	1484.04443	-116.52441	1631.22046	1352.68372	-234.44656	1569.13770	1483.65137	-235.59575	1576.95496	1407.46692	-259.82266	1420.76538	1408.13538	-296.86462	1107.15796	1416.49390	-140.94298	1340.66101	1412.64526	-99.69954	1175.72803	1499.82861	-322.18640	1246.39587	1259.66711	-173.45273	1378.30554	1180.56091	-146.16881	1190.85400	1164.17981	-106.08652	1075.92456	1169.48596	-35.64977	966.93152	1204.38013	23.44943	865.85431	1152.21313	5.10755	861.55878	1163.96411	53.72636	793.94995	1573.00928	-195.35811	1365.95569	1646.86023	-199.29655	1143.77380	1661.04102	-182.40300	1032.42847	1662.48523	-159.49916	897.14490	1627.40540	-123.12545	804.32239	1669.92346	-156.33897	797.12097	1661.72034	-127.25742	728.98602	1296.51855	-125.32201	943.06000	1535.39014	-134.04863	944.65582	1344.03906	-289.73416	967.34808	1492.59204	-293.77078	970.17194	1267.16992	-193.77811	641.13275	1310.37280	-203.71761	464.64880	1310.63232	-268.87790	278.97775	1356.56274	-303.17529	71.82327	1392.73462	-346.10687	38.49279	1377.71960	-152.36412	34.70484	1588.71741	-120.82896	655.05664	1561.70300	-44.47316	491.17416	1565.68555	-94.13497	306.19235	1522.72693	-133.57120	93.13757	1467.99133	-177.57658	62.26080	1513.45813	-0.34257	47.72485	1397.52734	-202.63553	1676.60352																		 
